# xmcd
#
# Track frame offsets:
#	150
#	28301
#	44594
#	65880
#	92447
#	122647
#	148876
#	180060
#	198344
#	215831
#	253853
#	292405
#
# Disc length: 4261 seconds
#
# Revision: 1
# Processed by: cddbd v1.5.1PL0 Copyright (c) Steve Scherf et al.
# Submitted via: CDex 1.50Beta5
#
DISCID=c610a30c
DTITLE=IKECHAN - 祭
DYEAR=1900
DGENRE=
TTITLE0=愛を信じ
TTITLE1=あつまろや
TTITLE2=男のバラード
TTITLE3=わかってよ
TTITLE4=涙のあとで
TTITLE5=うち泉州に帰るから
TTITLE6=捨てたはずの町
TTITLE7=だんじり
TTITLE8=ケヤキの神
TTITLE9=うわさの後梃子
TTITLE10=だんじりブルース
TTITLE11=祭花
EXTD=
EXTT0=
EXTT1=
EXTT2=
EXTT3=
EXTT4=
EXTT5=
EXTT6=
EXTT7=
EXTT8=
EXTT9=
EXTT10=
EXTT11=
PLAYORDER=
